<?xml version="1.0" encoding="UTF-8"?><svg id="Layer_1" xmlns="http://www.w3.org/2000/svg" viewBox="0 0 512 67.5"><defs><style>.cls-1{fill:#8c1d3f;stroke-width:0px;}</style></defs><path id="brandmark" class="cls-1" d="m9.9,55.5h20.8v11.1H0V.9h30v11.1H9.9v15.1h16v11.1h-16v17.3ZM66,6.2c3,3.5,4.6,9.3,4.8,17.4v20.2c-.2,8.1-1.8,13.9-4.8,17.4-3,3.5-7.5,5.3-13.3,5.3h-16.6V.9h16.6c5.9,0,10.3,1.8,13.3,5.3Zm-5.1,18.9c0-4.7-.7-8-2-10-1.3-2-3.6-3-6.6-3h-4.4v43.5h4.4c2.9,0,5-1,6.5-3,1.4-2,2.2-5.4,2.2-10.1v-17.3ZM122.3.9l-7.2,42.9h-.1L107.5.9h-9.9l-7.4,42.9h-.1L82.8.9h-9.5l11.3,65.6h9.8l8.1-44.9h.1l7.5,44.9h9.9L131.9.9h-9.6Zm31.8,0l12.5,65.6h-9.5l-2.5-13.8h-13.8l-2.8,13.8h-9.6L141.4.9h12.8Zm-1.6,40.7l-4.8-26.5h-.1l-4.9,26.5h9.9Zm43.6-4.4l10.5,29.3h-11.4l-9.3-26.7h-5.1v26.7h-10.6V.9h15.4c6.3,0,11,1.7,14.2,5.1,3.2,3.4,4.7,8.2,4.7,14.5s-.7,7.8-2,10.6c-1.4,2.8-3.5,4.9-6.4,6.1Zm-2.2-16.9c0-3.1-.7-5.4-2-6.9-1.3-1.5-3.2-2.2-5.6-2.2h-5.5v18.2h5.5c2.4,0,4.3-.7,5.6-2.2,1.3-1.5,2-3.8,2-6.9Zm47.8-14.1c3.3,3.5,5,9.3,5.2,17.4v20.2c-.2,8.1-2,13.9-5.2,17.4-3.3,3.5-8.1,5.3-14.5,5.3h-15V.9h15c6.4,0,11.2,1.8,14.5,5.3Zm-5.5,18.9c0-4.7-.7-8-2.2-10-1.5-2-3.9-3-7.2-3h-3.8v43.5h3.8c3.1,0,5.5-1,7-3,1.6-2,2.3-5.4,2.3-10.1v-17.3Zm64-20.1c-1.4-1.8-3.2-3-5.2-3.8-2-.8-4.2-1.2-6.7-1.2s-4.7.4-6.7,1.2c-2,.8-3.7,2.1-5.2,3.8-1.4,1.8-2.6,4-3.3,6.9-.8,2.8-1.2,6.2-1.2,10.1v23.5c0,3.9.4,7.3,1.2,10.1.8,2.8,1.9,5.1,3.3,6.9,1.4,1.8,3.2,3,5.2,3.8,2,.8,4.2,1.2,6.7,1.2s4.7-.4,6.7-1.2c2-.8,3.7-2.1,5.2-3.8,1.4-1.8,2.6-4,3.3-6.9.8-2.8,1.2-6.2,1.2-10.1v-2.7h-9.9v4.4c0,3.5-.5,5.9-1.6,7.2-1.1,1.4-2.7,2-4.9,2s-3.7-.7-4.8-2c-1.1-1.4-1.7-3.8-1.7-7.2v-26.7c0-3.5.6-5.9,1.7-7.2,1.1-1.4,2.7-2,4.8-2s3.8.7,4.9,2c1.1,1.4,1.6,3.8,1.6,7.2v1.8h9.9v-.2c0-3.9-.4-7.3-1.2-10.1s-1.9-5.1-3.3-6.9Zm46.2,6.9c.8,2.8,1.2,6.2,1.2,10.1v23.5c0,3.9-.4,7.3-1.2,10.1-.8,2.8-2,5.1-3.5,6.9-1.5,1.8-3.3,3-5.3,3.8-2.1.8-4.4,1.2-6.9,1.2s-4.9-.4-6.9-1.2c-2.1-.8-3.8-2.1-5.3-3.8-1.5-1.8-2.6-4-3.5-6.9s-1.2-6.2-1.2-10.1v-23.5c0-3.9.4-7.3,1.2-10.1s2-5.1,3.5-6.9c1.5-1.8,3.3-3,5.3-3.8,2.1-.8,4.4-1.2,6.9-1.2s4.9.4,6.9,1.2c2.1.8,3.8,2.1,5.3,3.8,1.5,1.8,2.6,4,3.5,6.9Zm-9,8.5c0-3.5-.6-5.9-1.7-7.2-1.1-1.4-2.8-2-5-2s-3.8.7-5,2c-1.1,1.4-1.7,3.8-1.7,7.2v26.7c0,3.5.6,5.9,1.7,7.2,1.1,1.4,2.8,2,5,2s3.9-.7,5-2c1.1-1.4,1.7-3.8,1.7-7.2v-26.7Zm43.7,19.5h-.1L367.1.9h-10.9v65.6h9.1V24.2h.1l15.2,42.4h9.5V.9h-9.1v38.9ZM419,.9l12.5,65.6h-9.5l-2.5-13.8h-13.8l-2.8,13.8h-9.6L406.2.9h12.8Zm-1.6,40.7l-4.8-26.5h-.1l-4.9,26.5h9.9Zm44-4.4l10.5,29.3h-11.4l-9.3-26.7h-5.1v26.7h-10.6V.9h15.4c6.3,0,11,1.7,14.2,5.1,3.2,3.4,4.7,8.2,4.7,14.5s-.7,7.8-2,10.6c-1.4,2.8-3.5,4.9-6.4,6.1Zm-2.2-16.9c0-3.1-.7-5.4-2-6.9-1.3-1.5-3.2-2.2-5.6-2.2h-5.5v18.2h5.5c2.4,0,4.3-.7,5.6-2.2,1.3-1.5,2-3.8,2-6.9Zm52.9,3.3v20.2c-.2,8.1-1.9,13.9-5.1,17.4-3.2,3.5-8,5.3-14.2,5.3h-14.8V.9h14.8c6.2,0,11,1.8,14.2,5.3,3.2,3.5,4.9,9.3,5.1,17.4Zm-10.6,1.5c0-4.7-.7-8-2.2-10-1.4-2-3.8-3-7.1-3h-3.7v43.5h3.7c3.1,0,5.4-1,6.9-3,1.5-2,2.3-5.4,2.3-10.1v-17.3Z"/></svg>